<svg width="53" height="53" viewBox="0 0 53 53" fill="none" xmlns="http://www.w3.org/2000/svg">
<path fill-rule="evenodd" clip-rule="evenodd" d="M26.5 4.41666C14.3087 4.41666 4.41666 14.3087 4.41666 26.5C4.41666 38.6913 14.3087 48.5833 26.5 48.5833C38.6674 48.5833 48.5833 38.6913 48.5833 26.5C48.5833 14.3087 38.6674 4.41666 26.5 4.41666ZM41.0865 14.5961C43.7212 17.8056 45.302 21.9013 45.3499 26.3323C44.7271 26.2126 38.4997 24.9432 32.2244 25.7335C32.0807 25.4222 31.9609 25.0868 31.8173 24.7515C31.434 23.8414 31.0029 22.9073 30.5718 22.021C37.5177 19.1948 40.6793 15.123 41.0865 14.5961ZM26.5 7.67407C31.2903 7.67407 35.6735 9.47043 39.0027 12.4165C38.6674 12.8955 35.8171 16.7038 29.1107 19.2187C26.021 13.5422 22.5959 8.8956 22.069 8.17705C23.4821 7.84173 24.9671 7.67407 26.5 7.67407ZM18.4762 9.44649C18.9792 10.1171 22.3324 14.7877 25.4701 20.3444C16.6559 22.6917 8.87167 22.6438 8.03335 22.6438C9.25486 16.7996 13.2069 11.9374 18.4762 9.44649ZM7.62617 26.5239C7.62617 26.3323 7.62617 26.1407 7.62617 25.9491C8.44053 25.973 17.59 26.0928 27.003 23.2665C27.5539 24.3204 28.0568 25.3982 28.5359 26.476C28.2963 26.5479 28.0329 26.6198 27.7934 26.6916C18.0691 29.8293 12.8955 38.4039 12.4644 39.1225C9.47043 35.7932 7.62617 31.3622 7.62617 26.5239ZM26.5 45.3738C22.1408 45.3738 18.1169 43.8888 14.9314 41.3978C15.2667 40.7033 19.099 33.3262 29.7334 29.6137C29.7814 29.5898 29.8053 29.5898 29.8532 29.5658C32.5118 36.4399 33.5897 42.2122 33.8771 43.8649C31.6017 44.8469 29.1107 45.3738 26.5 45.3738ZM37.0148 42.1404C36.8231 40.9907 35.8172 35.4818 33.3502 28.7036C39.2662 27.7694 44.4397 29.3023 45.0864 29.5179C44.272 34.7633 41.2541 39.2901 37.0148 42.1404Z" fill="#4E7AC4"/>
</svg>
