<svg width="53" height="53" viewBox="0 0 53 53" fill="none" xmlns="http://www.w3.org/2000/svg">
<path fill-rule="evenodd" clip-rule="evenodd" d="M26.5 6.625C21.102 6.625 20.4262 6.64753 18.3062 6.74425C16.1902 6.84098 14.7446 7.17753 13.4805 7.6691C12.1556 8.1673 10.9538 8.94905 9.96003 9.96135C8.94934 10.954 8.16711 12.1549 7.66778 13.4805C7.17885 14.7446 6.84098 16.1915 6.74425 18.3075C6.64885 20.4262 6.625 21.1006 6.625 26.5C6.625 31.8994 6.64753 32.5738 6.74425 34.6938C6.84098 36.8098 7.17753 38.2554 7.6691 39.5195C8.1673 40.8445 8.94905 42.0462 9.96135 43.04C10.954 44.0506 12.1549 44.8329 13.4805 45.3322C14.7446 45.8225 16.1902 46.159 18.3062 46.2558C20.4262 46.3525 21.102 46.375 26.5 46.375C31.8981 46.375 32.5738 46.3525 34.6938 46.2558C36.8098 46.159 38.2554 45.8225 39.5195 45.3309C40.8445 44.8327 42.0462 44.051 43.04 43.0387C44.0507 42.0461 44.8329 40.8451 45.3322 39.5195C45.8225 38.2554 46.159 36.8098 46.2558 34.6938C46.3525 32.5738 46.375 31.8981 46.375 26.5C46.375 21.102 46.3525 20.4262 46.2558 18.3062C46.159 16.1902 45.8225 14.7446 45.3309 13.4805C44.8319 12.1543 44.0497 10.9529 43.0387 9.96003C42.0461 8.94934 40.8451 8.16711 39.5195 7.66778C38.2554 7.17885 36.8085 6.84098 34.6925 6.74425C32.5738 6.64885 31.8994 6.625 26.5 6.625ZM26.5 10.2065C31.8066 10.2065 32.436 10.2264 34.5322 10.3218C36.4693 10.4105 37.5214 10.7325 38.2223 11.0068C39.1498 11.3658 39.8123 11.7978 40.5079 12.4921C41.2035 13.1877 41.6342 13.8502 41.9932 14.7777C42.2662 15.4787 42.5895 16.5307 42.6782 18.4678C42.7737 20.564 42.7935 21.1934 42.7935 26.5C42.7935 31.8066 42.7737 32.436 42.6782 34.5322C42.5895 36.4693 42.2675 37.5214 41.9932 38.2223C41.6751 39.0856 41.1676 39.8666 40.5079 40.5079C39.8667 41.1677 39.0857 41.6753 38.2223 41.9932C37.5214 42.2662 36.4693 42.5895 34.5322 42.6782C32.436 42.7737 31.808 42.7935 26.5 42.7935C21.1921 42.7935 20.564 42.7737 18.4678 42.6782C16.5307 42.5895 15.4787 42.2675 14.7777 41.9932C13.9144 41.6751 13.1334 41.1676 12.4921 40.5079C11.8325 39.8665 11.3249 39.0855 11.0068 38.2223C10.7338 37.5214 10.4105 36.4693 10.3218 34.5322C10.2264 32.436 10.2065 31.8066 10.2065 26.5C10.2065 21.1934 10.2264 20.564 10.3218 18.4678C10.4105 16.5307 10.7325 15.4787 11.0068 14.7777C11.3658 13.8502 11.7978 13.1877 12.4921 12.4921C13.1333 11.8323 13.9144 11.3247 14.7777 11.0068C15.4787 10.7338 16.5307 10.4105 18.4678 10.3218C20.564 10.2264 21.1934 10.2065 26.5 10.2065Z" fill="#4E7AC4"/>
<path fill-rule="evenodd" clip-rule="evenodd" d="M26.5 33.1316C25.6291 33.1316 24.7668 32.9601 23.9622 32.6268C23.1576 32.2935 22.4265 31.8051 21.8107 31.1893C21.1949 30.5735 20.7065 29.8424 20.3732 29.0378C20.0399 28.2332 19.8684 27.3709 19.8684 26.5C19.8684 25.6291 20.0399 24.7668 20.3732 23.9622C20.7065 23.1576 21.1949 22.4265 21.8107 21.8107C22.4265 21.1949 23.1576 20.7064 23.9622 20.3732C24.7668 20.0399 25.6291 19.8684 26.5 19.8684C28.2588 19.8684 29.9456 20.5671 31.1893 21.8107C32.4329 23.0544 33.1316 24.7412 33.1316 26.5C33.1316 28.2588 32.4329 29.9456 31.1893 31.1893C29.9456 32.4329 28.2588 33.1316 26.5 33.1316ZM26.5 16.2842C23.7906 16.2842 21.1922 17.3605 19.2764 19.2764C17.3606 21.1922 16.2843 23.7906 16.2843 26.5C16.2843 29.2094 17.3606 31.8078 19.2764 33.7236C21.1922 35.6394 23.7906 36.7157 26.5 36.7157C29.2094 36.7157 31.8078 35.6394 33.7236 33.7236C35.6395 31.8078 36.7157 29.2094 36.7157 26.5C36.7157 23.7906 35.6395 21.1922 33.7236 19.2764C31.8078 17.3605 29.2094 16.2842 26.5 16.2842ZM39.6877 16.0987C39.6877 16.7392 39.4333 17.3534 38.9804 17.8063C38.5276 18.2591 37.9134 18.5136 37.2729 18.5136C36.6325 18.5136 36.0182 18.2591 35.5654 17.8063C35.1125 17.3534 34.8581 16.7392 34.8581 16.0987C34.8581 15.4583 35.1125 14.8441 35.5654 14.3912C36.0182 13.9383 36.6325 13.6839 37.2729 13.6839C37.9134 13.6839 38.5276 13.9383 38.9804 14.3912C39.4333 14.8441 39.6877 15.4583 39.6877 16.0987Z" fill="#4E7AC4"/>
</svg>
