<svg width="53" height="53" viewBox="0 0 53 53" fill="none" xmlns="http://www.w3.org/2000/svg">
<path d="M46.375 9.54779V43.4522C46.375 44.2274 46.0671 44.9708 45.5189 45.5189C44.9708 46.0671 44.2274 46.375 43.4522 46.375H9.54779C8.77262 46.375 8.0292 46.0671 7.48107 45.5189C6.93294 44.9708 6.625 44.2274 6.625 43.4522V9.54779C6.625 8.77262 6.93294 8.0292 7.48107 7.48107C8.0292 6.93294 8.77262 6.625 9.54779 6.625H43.4522C44.2274 6.625 44.9708 6.93294 45.5189 7.48107C46.0671 8.0292 46.375 8.77262 46.375 9.54779ZM18.3162 21.8235H12.4706V40.5294H18.3162V21.8235ZM18.8423 15.3934C18.8454 14.9512 18.7613 14.5128 18.5949 14.1031C18.4286 13.6934 18.1831 13.3205 17.8726 13.0056C17.5622 12.6908 17.1927 12.4402 16.7854 12.2682C16.378 12.0961 15.9408 12.006 15.4986 12.0029H15.3934C14.4942 12.0029 13.6318 12.3601 12.996 12.996C12.3601 13.6318 12.0029 14.4942 12.0029 15.3934C12.0029 16.2926 12.3601 17.155 12.996 17.7908C13.6318 18.4266 14.4942 18.7838 15.3934 18.7838C15.8356 18.7947 16.2756 18.7183 16.6883 18.5591C17.101 18.3999 17.4782 18.1609 17.7985 17.8558C18.1188 17.5507 18.3758 17.1855 18.5549 16.7811C18.734 16.3766 18.8317 15.9408 18.8423 15.4986V15.3934ZM40.5294 29.1656C40.5294 23.5421 36.9519 21.3559 33.3978 21.3559C32.2341 21.2976 31.0755 21.5455 30.0375 22.0747C28.9995 22.604 28.1184 23.3962 27.4821 24.3722H27.3184V21.8235H21.8235V40.5294H27.6691V30.5802C27.5846 29.5613 27.9056 28.5501 28.5623 27.7664C29.219 26.9827 30.1584 26.4898 31.1765 26.3948H31.3986C33.2575 26.3948 34.6371 27.5639 34.6371 30.5101V40.5294H40.4826L40.5294 29.1656Z" fill="#4E7AC4"/>
</svg>
