<svg width="53" height="53" viewBox="0 0 53 53" fill="none" xmlns="http://www.w3.org/2000/svg">
<path fill-rule="evenodd" clip-rule="evenodd" d="M43.7074 11.9575C45.6068 12.4677 47.1092 13.9702 47.6195 15.8695C48.555 19.328 48.5833 26.5001 48.5833 26.5001C48.5833 26.5001 48.5833 33.7006 47.6478 37.1308C47.1376 39.0301 45.6351 40.5326 43.7358 41.0428C40.3056 41.9783 26.5 41.9783 26.5 41.9783C26.5 41.9783 12.6944 41.9783 9.26423 41.0428C7.36489 40.5326 5.86243 39.0301 5.35216 37.1308C4.41667 33.6723 4.41667 26.5001 4.41667 26.5001C4.41667 26.5001 4.41667 19.328 5.32381 15.8979C5.83408 13.9985 7.33654 12.4961 9.23588 11.9858C12.666 11.0503 26.4716 11.022 26.4716 11.022C26.4716 11.022 40.2773 11.022 43.7074 11.9575ZM33.5304 26.5002L22.0777 33.1337V19.8666L33.5304 26.5002Z" fill="#4E7AC4"/>
</svg>
